<svg xmlns="http://www.w3.org/2000/svg" width="309.785" height="151" viewBox="0 0 309.785 151">
  <g id="Group_16" data-name="Group 16" transform="translate(-118.626 -107.707)">
    <path id="Path_4" data-name="Path 4" d="M142.929,124.245s-8.1-13.026,15.3-15.374C158.226,108.871,155.3,132.071,142.929,124.245Z" transform="translate(13.705 0.731)" fill="#c9e4ca" stroke="#fff" stroke-miterlimit="10" stroke-width="2"/>
    <path id="Path_5" data-name="Path 5" d="M138.854,247.731a113.761,113.761,0,0,1,21.2-134.209" transform="translate(3.829 3.652)" fill="none" stroke="#fff" stroke-miterlimit="10" stroke-width="2"/>
    <path id="Path_6" data-name="Path 6" d="M135.227,130.384s-12.973,8.183-15.473-15.2C119.754,115.187,142.974,117.956,135.227,130.384Z" transform="translate(0 4.698)" fill="#c9e4ca" stroke="#fff" stroke-miterlimit="10" stroke-width="2"/>
    <path id="Path_7" data-name="Path 7" d="M133.336,160.988s-1.762-15.237,20.4-7.372C153.733,153.616,141.186,173.348,133.336,160.988Z" transform="translate(8.51 27.419)" fill="#c9e4ca" stroke="#fff" stroke-miterlimit="10" stroke-width="2"/>
    <path id="Path_8" data-name="Path 8" d="M125.9,172.566A32.372,32.372,0,0,1,147,154.777" transform="translate(3.858 29.564)" fill="none" stroke="#fff" stroke-miterlimit="10" stroke-width="2"/>
    <path id="Path_9" data-name="Path 9" d="M131.787,153.235c.9-5.7,1.8-11.457,1.293-17.2s-2.559-11.555-6.763-15.5" transform="translate(4.122 8.058)" fill="none" stroke="#fff" stroke-miterlimit="10" stroke-width="2"/>
    <text id="HOTEL" transform="translate(156.614 171.183)" fill="#fff" font-size="53" font-family="Raleway-Black, Raleway" font-weight="800"><tspan x="0" y="0">HOTEL</tspan></text>
    <text id="Serene" transform="translate(178.411 205.707)" fill="#c9e4ca" font-size="97" font-family="Rollerscript-Smooth, Rollerscript"><tspan x="0" y="0">Serene</tspan></text>
  </g>
</svg>
